<svg width="293" height="98" viewBox="0 0 293 98" fill="none" xmlns="http://www.w3.org/2000/svg">
<path d="M18.7278 16.6291V71H3.77576V16.6291H18.7278ZM41.1445 27.4278H26.2681V16.6291H41.1445V27.4278ZM41.1445 71H26.2681V32.4873H41.1445V71ZM67.8675 31.6566C70.284 31.6566 72.7508 32.0594 75.268 32.8648C77.8355 33.62 79.9751 34.7779 81.6867 36.3385C83.3984 37.8992 84.2543 39.7871 84.2543 42.0022C84.2543 42.4553 84.2291 42.8832 84.1787 43.2859C84.1284 43.6383 84.1032 43.8649 84.1032 43.9656H71.7187C71.7187 42.7573 71.165 41.9015 70.0574 41.3981C69.0002 40.8443 67.792 40.5674 66.4327 40.5674C62.7073 40.5674 60.8446 41.2974 60.8446 42.7573C60.8446 43.6635 61.3983 44.2928 62.5059 44.6452C63.6638 44.9473 65.5517 45.2493 68.1695 45.5514C71.5929 45.9541 74.4121 46.4576 76.6272 47.0617C78.8927 47.6658 80.8561 48.8489 82.5174 50.6109C84.2291 52.3226 85.0849 54.8398 85.0849 58.1624C85.0849 62.8947 83.3481 66.3432 79.8744 68.508C76.451 70.6728 72.2222 71.7552 67.1878 71.7552H63.261C60.4418 71.7552 57.7484 71.3272 55.1809 70.4714C52.6638 69.5652 50.5997 68.2059 48.9887 66.3936C47.3777 64.5812 46.5722 62.3661 46.5722 59.7482V59.0686C46.5722 58.7665 46.5974 58.54 46.6477 58.389H58.8812V58.691C58.8812 60.151 59.5356 61.183 60.8446 61.7872C62.1535 62.3409 63.6638 62.6178 65.3755 62.6178C66.8858 62.6178 68.3206 62.4668 69.6798 62.1647C71.0895 61.8627 71.7943 61.2334 71.7943 60.2768C71.7943 59.3203 71.2153 58.6659 70.0574 58.3135C68.8995 57.9107 66.9865 57.508 64.3183 57.1052C61.0963 56.7025 58.3526 56.1739 56.0871 55.5194C53.8217 54.8649 51.8583 53.6819 50.1969 51.9702C48.5859 50.2082 47.7804 47.7665 47.7804 44.6452C47.7804 41.7253 48.6615 39.3088 50.4235 37.3958C52.2358 35.4324 54.5013 33.9976 57.2198 33.0914C59.9384 32.1349 62.7073 31.6566 65.5265 31.6566H67.8675ZM130.212 31.6566H117.073V71H101.366V31.6566H88.2259V19.1966H130.212V31.6566ZM160.565 18.5925C164.693 18.5925 168.469 19.6245 171.892 21.6886C175.366 23.7023 178.109 26.4461 180.123 29.9198C182.187 33.3431 183.219 37.1189 183.219 41.247V49.1006C183.219 53.2288 182.187 57.0297 180.123 60.5034C178.109 63.9267 175.366 66.6705 171.892 68.7345C168.469 70.7483 164.693 71.7552 160.565 71.7552H156.336C152.208 71.7552 148.407 70.7483 144.933 68.7345C141.51 66.6705 138.766 63.9267 136.702 60.5034C134.688 57.0297 133.681 53.2288 133.681 49.1006V41.247C133.681 37.1189 134.688 33.3431 136.702 29.9198C138.766 26.4461 141.51 23.7023 144.933 21.6886C148.407 19.6245 152.208 18.5925 156.336 18.5925H160.565ZM158.299 30.2218C156.185 30.2218 154.398 30.9518 152.938 32.4118C151.478 33.8717 150.748 35.6589 150.748 37.7733V52.3478C150.748 54.4622 151.478 56.2494 152.938 57.7093C154.398 59.1693 156.185 59.8993 158.299 59.8993H158.677C160.791 59.8993 162.578 59.1693 164.038 57.7093C165.498 56.2494 166.228 54.4622 166.228 52.3478V37.7733C166.228 35.6589 165.498 33.8717 164.038 32.4118C162.578 30.9518 160.791 30.2218 158.677 30.2218H158.299ZM213.182 19.1966C217.31 19.1966 221.086 20.2286 224.509 22.2927C227.983 24.3065 230.726 27.0502 232.74 30.5239C234.804 33.9472 235.836 37.723 235.836 41.8512V48.3455C235.836 52.4736 234.804 56.2745 232.74 59.7482C230.726 63.1716 227.983 65.9153 224.509 67.9794C221.086 69.9931 217.31 71 213.182 71H189.847V19.1966H213.182ZM205.857 58.9931H211.671C213.786 58.9931 215.573 58.2631 217.033 56.8032C218.493 55.3432 219.223 53.556 219.223 51.4416V38.5285C219.223 36.4141 218.493 34.6269 217.033 33.1669C215.573 31.7069 213.786 30.977 211.671 30.977H205.857V58.9931ZM267.348 18.5925C271.476 18.5925 275.252 19.6245 278.675 21.6886C282.149 23.7023 284.893 26.4461 286.906 29.9198C288.97 33.3431 290.002 37.1189 290.002 41.247V49.1006C290.002 53.2288 288.97 57.0297 286.906 60.5034C284.893 63.9267 282.149 66.6705 278.675 68.7345C275.252 70.7483 271.476 71.7552 267.348 71.7552H263.119C258.991 71.7552 255.19 70.7483 251.716 68.7345C248.293 66.6705 245.549 63.9267 243.485 60.5034C241.471 57.0297 240.464 53.2288 240.464 49.1006V41.247C240.464 37.1189 241.471 33.3431 243.485 29.9198C245.549 26.4461 248.293 23.7023 251.716 21.6886C255.19 19.6245 258.991 18.5925 263.119 18.5925H267.348ZM265.082 30.2218C262.968 30.2218 261.181 30.9518 259.721 32.4118C258.261 33.8717 257.531 35.6589 257.531 37.7733V52.3478C257.531 54.4622 258.261 56.2494 259.721 57.7093C261.181 59.1693 262.968 59.8993 265.082 59.8993H265.46C267.574 59.8993 269.362 59.1693 270.822 57.7093C272.281 56.2494 273.011 54.4622 273.011 52.3478V37.7733C273.011 35.6589 272.281 33.8717 270.822 32.4118C269.362 30.9518 267.574 30.2218 265.46 30.2218H265.082Z" fill="#52527A"/>
<path d="M6.3545 82.5109C7.33817 82.5109 8.22348 82.7273 9.01041 83.1601C9.81046 83.5798 10.4335 84.17 10.8794 84.9307C11.3384 85.6914 11.568 86.5571 11.568 87.5276V87.9408C11.568 88.9244 11.3384 89.7966 10.8794 90.5573C10.4335 91.318 9.81046 91.9082 9.01041 92.3279C8.22348 92.7476 7.33817 92.9575 6.3545 92.9575H5.72496C4.74129 92.9575 3.84943 92.7476 3.04938 92.3279C2.26244 91.8951 1.63945 91.2984 1.1804 90.5376C0.734473 89.7769 0.511508 88.9113 0.511508 87.9408V87.5276C0.511508 86.5571 0.734473 85.6914 1.1804 84.9307C1.63945 84.17 2.26244 83.5798 3.04938 83.1601C3.84943 82.7273 4.74129 82.5109 5.72496 82.5109H6.3545ZM6.03973 84.8914C5.65938 84.8914 5.33805 85.0291 5.07573 85.3045C4.81342 85.5668 4.68227 85.8882 4.68227 86.2685V89.1999C4.68227 89.5802 4.81342 89.9081 5.07573 90.1835C5.33805 90.4458 5.65938 90.577 6.03973 90.577C6.42008 90.577 6.74141 90.4458 7.00373 90.1835C7.26604 89.9081 7.39719 89.5802 7.39719 89.1999V86.2685C7.39719 85.8882 7.26604 85.5668 7.00373 85.3045C6.74141 85.0291 6.42008 84.8914 6.03973 84.8914ZM19.0686 82.5109C19.9342 82.5109 20.6031 82.7535 21.0753 83.2388C21.5605 83.711 21.8032 84.3668 21.8032 85.2062V85.5406L21.7638 86.2882L21.7245 86.78H18.5374V86.3079C18.5374 86.0324 18.4522 85.8029 18.2816 85.6193C18.1243 85.4226 17.9341 85.3242 17.7111 85.3242C17.475 85.3242 17.2717 85.4226 17.1012 85.6193C16.9439 85.8029 16.8652 86.0324 16.8652 86.3079V92.7607H13.0682V82.7076H15.9799L16.4127 84.1635C16.4914 84.0061 16.6422 83.7962 16.8652 83.5339C17.0881 83.2716 17.3898 83.0355 17.7701 82.8257C18.1505 82.6158 18.5833 82.5109 19.0686 82.5109ZM33.6241 80.8977C33.6241 81.6584 33.4405 82.242 33.0733 82.6486C32.7191 83.0552 32.1814 83.3569 31.4601 83.5536C31.8142 83.829 32.083 84.1504 32.2667 84.5176C32.4634 84.8848 32.5618 85.2652 32.5618 85.6586C32.5618 86.2357 32.3847 86.7669 32.0306 87.2522C31.6765 87.7375 31.1977 88.1244 30.5944 88.4129C29.9911 88.6884 29.3353 88.8261 28.6271 88.8261H27.2696C26.8893 88.8261 26.6073 88.8851 26.4237 89.0031C26.24 89.108 26.1482 89.2458 26.1482 89.4163C26.1482 89.613 26.2269 89.7638 26.3843 89.8688C26.5417 89.9737 26.8368 90.0261 27.2696 90.0261H30.4764C31.5256 90.0261 32.3126 90.3081 32.8372 90.8721C33.3618 91.423 33.6241 92.164 33.6241 93.0952C33.6241 93.6854 33.4405 94.2362 33.0733 94.7478C32.7191 95.2724 32.2404 95.6855 31.6371 95.9872C31.0338 96.302 30.3846 96.4593 29.6894 96.4593H24.476C23.8333 96.4593 23.2759 96.2298 22.8038 95.7708C22.3447 95.3117 22.1152 94.7543 22.1152 94.0985V94.0002C22.1152 93.5411 22.2595 93.1214 22.548 92.7411C22.8366 92.3476 23.1907 92.0525 23.6104 91.8558C23.3218 91.659 23.0923 91.4098 22.9218 91.1082C22.7513 90.8065 22.666 90.4852 22.666 90.1442C22.666 89.6589 22.8366 89.2195 23.1776 88.8261C23.5317 88.4326 23.9645 88.1703 24.476 88.0391C24.017 87.7375 23.6497 87.3833 23.3743 86.9768C23.0989 86.5702 22.9611 86.1374 22.9611 85.6783C22.9611 84.7471 23.3481 83.9864 24.1219 83.3962C24.8957 82.806 26.0171 82.5109 27.486 82.5109H28.0369C28.509 82.5109 28.9419 82.5503 29.3353 82.6289C29.8337 82.3011 30.1878 81.9863 30.3977 81.6846C30.6075 81.3699 30.7125 81.1075 30.7125 80.8977H33.6241ZM27.8401 84.4389C27.4991 84.4389 27.2106 84.5635 26.9745 84.8127C26.7516 85.0488 26.6401 85.3373 26.6401 85.6783C26.6401 86.0193 26.7516 86.3144 26.9745 86.5636C27.2106 86.7997 27.4991 86.9177 27.8401 86.9177C28.1812 86.9177 28.4631 86.7997 28.6861 86.5636C28.9222 86.3144 29.0402 86.0193 29.0402 85.6783C29.0402 85.3373 28.9222 85.0488 28.6861 84.8127C28.4631 84.5635 28.1812 84.4389 27.8401 84.4389ZM26.3253 92.7607C26.0499 92.7607 25.8138 92.8394 25.6171 92.9968C25.4334 93.1542 25.3416 93.3444 25.3416 93.5674C25.3416 93.7903 25.4334 93.9805 25.6171 94.1379C25.8138 94.3084 26.0499 94.3936 26.3253 94.3936H29.1386C29.414 94.3936 29.6435 94.3149 29.8272 94.1576C30.0239 94.0002 30.1223 93.81 30.1223 93.587C30.1223 93.3641 30.0239 93.1673 29.8272 92.9968C29.6435 92.8394 29.414 92.7607 29.1386 92.7607H26.3253ZM39.7788 82.5109C41.3002 82.5109 42.461 82.806 43.261 83.3962C44.0742 83.9864 44.4808 84.7537 44.4808 85.698V89.8491C44.4808 90.0983 44.5398 90.2819 44.6578 90.3999C44.7759 90.518 44.9201 90.577 45.0906 90.577C45.3398 90.577 45.5694 90.518 45.7792 90.3999V92.505C45.3595 92.8066 44.6972 92.9575 43.7922 92.9575C42.9528 92.9575 42.2905 92.8198 41.8052 92.5443C41.3199 92.2558 41.0182 91.8623 40.9002 91.3639C40.4805 91.8492 40.0149 92.2361 39.5034 92.5247C39.005 92.8132 38.3886 92.9575 37.6541 92.9575C36.6048 92.9575 35.7523 92.7542 35.0966 92.3476C34.4408 91.941 34.1129 91.141 34.1129 89.9474C34.1129 89.0425 34.3686 88.3473 34.8801 87.8621C35.3917 87.3637 36.1196 87.0227 37.0639 86.8391C38.0213 86.6423 39.2345 86.544 40.7035 86.544V85.9734C40.7035 85.6062 40.5789 85.3176 40.3297 85.1078C40.0936 84.8979 39.7919 84.793 39.4247 84.793C39.123 84.793 38.8345 84.8848 38.5591 85.0684C38.2968 85.2389 38.1656 85.4554 38.1656 85.7177V85.7964H34.4277C34.4145 85.757 34.408 85.6652 34.408 85.5209C34.408 84.957 34.5982 84.452 34.9785 84.0061C35.372 83.547 35.9228 83.1864 36.6311 82.924C37.3524 82.6486 38.1853 82.5109 39.1296 82.5109H39.7788ZM40.7035 88.3342C39.8378 88.3342 39.2017 88.4523 38.7952 88.6884C38.3886 88.9113 38.1853 89.2261 38.1853 89.6327C38.1853 90.2622 38.5787 90.577 39.3657 90.577C39.7329 90.577 40.0477 90.4524 40.31 90.2032C40.5723 89.9409 40.7035 89.6064 40.7035 89.1999V88.3342ZM53.8261 82.5109C54.3638 82.5109 54.8557 82.6421 55.3016 82.9044C55.7606 83.1667 56.1213 83.5274 56.3836 83.9864C56.6459 84.4323 56.7771 84.9242 56.7771 85.4619V92.7607H52.8818V86.4653C52.8818 86.1374 52.7768 85.8619 52.567 85.639C52.3702 85.4029 52.1276 85.2849 51.8391 85.2849C51.5505 85.2849 51.3013 85.4029 51.0915 85.639C50.8947 85.8619 50.7964 86.1374 50.7964 86.4653V92.7607H46.901V82.7076H49.8324L50.2258 84.1635C50.9472 83.0618 51.9637 82.5109 53.2752 82.5109H53.8261ZM62.5538 81.4092H58.6782V78.5959H62.5538V81.4092ZM62.5538 92.7607H58.6782V82.7273H62.5538V92.7607ZM72.7028 82.7076V83.888L68.9846 90.3212H72.8602V92.7607H63.9679V91.5213L67.6665 85.1471H64.1843V82.7076H72.7028ZM79.7272 82.5109C80.7371 82.5109 81.6027 82.7076 82.3241 83.1011C83.0585 83.4815 83.6159 84.0126 83.9963 84.6947C84.3898 85.3767 84.5865 86.157 84.5865 87.0358V88.2555H78.0353V89.1999C78.0353 89.6458 78.173 89.9868 78.4484 90.2229C78.7369 90.459 79.1042 90.577 79.5501 90.577C80.0092 90.577 80.3567 90.4393 80.5928 90.1639C80.842 89.8753 80.9666 89.4818 80.9666 88.9835H84.5668C84.5668 89.731 84.3701 90.4065 83.9766 91.0098C83.5963 91.6131 83.0323 92.0918 82.2847 92.446C81.5502 92.787 80.6781 92.9575 79.6682 92.9575H79.3731C78.3238 92.9575 77.3795 92.7673 76.5401 92.3869C75.7138 91.9935 75.058 91.4295 74.5727 90.695C74.1006 89.9474 73.8645 89.0621 73.8645 88.0391V87.4293C73.8645 86.4062 74.0875 85.5275 74.5334 84.793C74.9924 84.0454 75.6285 83.4815 76.4417 83.1011C77.2549 82.7076 78.1861 82.5109 79.2353 82.5109H79.7272ZM79.3927 84.8914C79.0124 84.8914 78.691 85.0291 78.4287 85.3045C78.1664 85.5668 78.0353 85.8882 78.0353 86.2685V86.544H80.7502V86.2685C80.7502 85.8882 80.619 85.5668 80.3567 85.3045C80.0944 85.0291 79.7731 84.8914 79.3927 84.8914ZM94.9144 82.5109C95.544 82.5109 96.1866 82.6158 96.8424 82.8257C97.5113 83.0224 98.0687 83.3241 98.5146 83.7307C98.9606 84.1372 99.1835 84.6291 99.1835 85.2062C99.1835 85.3242 99.177 85.4357 99.1639 85.5406C99.1507 85.6324 99.1442 85.6914 99.1442 85.7177H95.9178C95.9178 85.4029 95.7735 85.1799 95.4849 85.0488C95.2095 84.9045 94.8947 84.8324 94.5406 84.8324C93.5701 84.8324 93.0848 85.0225 93.0848 85.4029C93.0848 85.639 93.2291 85.8029 93.5176 85.8947C93.8193 85.9734 94.3111 86.0521 94.9931 86.1308C95.885 86.2357 96.6194 86.3669 97.1965 86.5243C97.7867 86.6817 98.2982 86.9899 98.731 87.4489C99.177 87.8949 99.3999 88.5506 99.3999 89.4163C99.3999 90.6491 98.9475 91.5475 98.0425 92.1115C97.1506 92.6755 96.0489 92.9575 94.7374 92.9575H93.7143C92.9799 92.9575 92.2782 92.846 91.6093 92.623C90.9535 92.3869 90.4158 92.0328 89.9961 91.5607C89.5764 91.0885 89.3665 90.5114 89.3665 89.8294V89.6523C89.3665 89.5737 89.3731 89.5146 89.3862 89.4753H92.5733V89.554C92.5733 89.9343 92.7438 90.2032 93.0848 90.3606C93.4258 90.5049 93.8193 90.577 94.2652 90.577C94.6587 90.577 95.0325 90.5376 95.3866 90.459C95.7538 90.3803 95.9374 90.2163 95.9374 89.9671C95.9374 89.7179 95.7866 89.5474 95.4849 89.4556C95.1833 89.3507 94.6849 89.2458 93.9898 89.1408C93.1504 89.0359 92.4356 88.8982 91.8454 88.7277C91.2552 88.5572 90.7437 88.249 90.3108 87.803C89.8911 87.344 89.6813 86.7079 89.6813 85.8947C89.6813 85.134 89.9108 84.5045 90.3699 84.0061C90.842 83.4946 91.4322 83.1208 92.1405 82.8847C92.8487 82.6355 93.5701 82.5109 94.3045 82.5109H94.9144ZM106.317 82.5109C107.327 82.5109 108.193 82.7076 108.914 83.1011C109.648 83.4815 110.206 84.0126 110.586 84.6947C110.98 85.3767 111.176 86.157 111.176 87.0358V88.2555H104.625V89.1999C104.625 89.6458 104.763 89.9868 105.038 90.2229C105.327 90.459 105.694 90.577 106.14 90.577C106.599 90.577 106.947 90.4393 107.183 90.1639C107.432 89.8753 107.556 89.4818 107.556 88.9835H111.157C111.157 89.731 110.96 90.4065 110.566 91.0098C110.186 91.6131 109.622 92.0918 108.875 92.446C108.14 92.787 107.268 92.9575 106.258 92.9575H105.963C104.914 92.9575 103.969 92.7673 103.13 92.3869C102.304 91.9935 101.648 91.4295 101.163 90.695C100.69 89.9474 100.454 89.0621 100.454 88.0391V87.4293C100.454 86.4062 100.677 85.5275 101.123 84.793C101.582 84.0454 102.218 83.4815 103.032 83.1011C103.845 82.7076 104.776 82.5109 105.825 82.5109H106.317ZM105.983 84.8914C105.602 84.8914 105.281 85.0291 105.019 85.3045C104.756 85.5668 104.625 85.8882 104.625 86.2685V86.544H107.34V86.2685C107.34 85.8882 107.209 85.5668 106.947 85.3045C106.684 85.0291 106.363 84.8914 105.983 84.8914ZM122.52 89.8491C122.52 90.0983 122.579 90.2819 122.697 90.3999C122.815 90.518 122.959 90.577 123.13 90.577C123.379 90.577 123.608 90.518 123.818 90.3999V92.505C123.398 92.8066 122.736 92.9575 121.831 92.9575C120.992 92.9575 120.349 92.8263 119.903 92.564C119.457 92.2886 119.136 91.8886 118.939 91.3639C118.716 91.7049 118.349 92.0591 117.837 92.4263C117.326 92.7804 116.762 92.9575 116.146 92.9575H115.595C115.057 92.9575 114.559 92.8263 114.099 92.564C113.654 92.3017 113.299 91.9476 113.037 91.5016C112.775 91.0426 112.644 90.5442 112.644 90.0065V82.7076H116.539V89.0031C116.539 89.331 116.637 89.613 116.834 89.8491C117.044 90.072 117.293 90.1835 117.582 90.1835C117.87 90.1835 118.113 90.072 118.31 89.8491C118.519 89.613 118.624 89.331 118.624 89.0031V82.7076H122.52V89.8491ZM135.609 92.7607L135.255 91.6C134.533 92.505 133.687 92.9575 132.717 92.9575C131.904 92.9575 131.169 92.7673 130.513 92.3869C129.871 92.0066 129.359 91.4361 128.979 90.6754C128.611 89.9015 128.428 88.9572 128.428 87.8424V87.626C128.428 86.5112 128.592 85.5734 128.92 84.8127C129.261 84.0389 129.713 83.4618 130.277 83.0814C130.854 82.7011 131.503 82.5109 132.225 82.5109C133.458 82.5109 134.323 82.924 134.822 83.7503V78.5959H138.717V92.7607H135.609ZM133.602 84.9701C133.261 84.9701 132.972 85.1078 132.736 85.3832C132.5 85.6455 132.382 85.9669 132.382 86.3472V89.1999C132.382 89.5802 132.5 89.9081 132.736 90.1835C132.972 90.4458 133.261 90.577 133.602 90.577C133.943 90.577 134.232 90.4458 134.468 90.1835C134.704 89.9081 134.822 89.5802 134.822 89.1999V86.3472C134.822 85.9669 134.704 85.6455 134.468 85.3832C134.232 85.1078 133.943 84.9701 133.602 84.9701ZM144.552 81.4092H140.676V78.5959H144.552V81.4092ZM144.552 92.7607H140.676V82.7273H144.552V92.7607ZM151.671 82.5109C153.193 82.5109 154.353 82.806 155.153 83.3962C155.967 83.9864 156.373 84.7537 156.373 85.698V89.8491C156.373 90.0983 156.432 90.2819 156.55 90.3999C156.668 90.518 156.813 90.577 156.983 90.577C157.232 90.577 157.462 90.518 157.672 90.3999V92.505C157.252 92.8066 156.59 92.9575 155.685 92.9575C154.845 92.9575 154.183 92.8198 153.698 92.5443C153.212 92.2558 152.911 91.8623 152.793 91.3639C152.373 91.8492 151.907 92.2361 151.396 92.5247C150.897 92.8132 150.281 92.9575 149.546 92.9575C148.497 92.9575 147.645 92.7542 146.989 92.3476C146.333 91.941 146.005 91.141 146.005 89.9474C146.005 89.0425 146.261 88.3473 146.773 87.8621C147.284 87.3637 148.012 87.0227 148.956 86.8391C149.914 86.6423 151.127 86.544 152.596 86.544V85.9734C152.596 85.6062 152.471 85.3176 152.222 85.1078C151.986 84.8979 151.684 84.793 151.317 84.793C151.015 84.793 150.727 84.8848 150.451 85.0684C150.189 85.2389 150.058 85.4554 150.058 85.7177V85.7964H146.32C146.307 85.757 146.3 85.6652 146.3 85.5209C146.3 84.957 146.491 84.452 146.871 84.0061C147.264 83.547 147.815 83.1864 148.523 82.924C149.245 82.6486 150.078 82.5109 151.022 82.5109H151.671ZM152.596 88.3342C151.73 88.3342 151.094 88.4523 150.688 88.6884C150.281 88.9113 150.078 89.2261 150.078 89.6327C150.078 90.2622 150.471 90.577 151.258 90.577C151.625 90.577 151.94 90.4524 152.202 90.2032C152.465 89.9409 152.596 89.6064 152.596 89.1999V88.3342ZM167.988 82.5109C168.998 82.5109 169.864 82.7076 170.585 83.1011C171.32 83.4815 171.877 84.0126 172.258 84.6947C172.651 85.3767 172.848 86.157 172.848 87.0358V88.2555H166.297V89.1999C166.297 89.6458 166.434 89.9868 166.71 90.2229C166.998 90.459 167.365 90.577 167.811 90.577C168.27 90.577 168.618 90.4393 168.854 90.1639C169.103 89.8753 169.228 89.4818 169.228 88.9835H172.828C172.828 89.731 172.631 90.4065 172.238 91.0098C171.858 91.6131 171.294 92.0918 170.546 92.446C169.812 92.787 168.939 92.9575 167.929 92.9575H167.634C166.585 92.9575 165.641 92.7673 164.801 92.3869C163.975 91.9935 163.319 91.4295 162.834 90.695C162.362 89.9474 162.126 89.0621 162.126 88.0391V87.4293C162.126 86.4062 162.349 85.5275 162.795 84.793C163.254 84.0454 163.89 83.4815 164.703 83.1011C165.516 82.7076 166.447 82.5109 167.497 82.5109H167.988ZM167.654 84.8914C167.274 84.8914 166.952 85.0291 166.69 85.3045C166.428 85.5668 166.297 85.8882 166.297 86.2685V86.544H169.011V86.2685C169.011 85.8882 168.88 85.5668 168.618 85.3045C168.356 85.0291 168.034 84.8914 167.654 84.8914ZM183.176 82.5109C183.805 82.5109 184.448 82.6158 185.104 82.8257C185.773 83.0224 186.33 83.3241 186.776 83.7307C187.222 84.1372 187.445 84.6291 187.445 85.2062C187.445 85.3242 187.438 85.4357 187.425 85.5406C187.412 85.6324 187.405 85.6914 187.405 85.7177H184.179C184.179 85.4029 184.035 85.1799 183.746 85.0488C183.471 84.9045 183.156 84.8324 182.802 84.8324C181.831 84.8324 181.346 85.0225 181.346 85.4029C181.346 85.639 181.49 85.8029 181.779 85.8947C182.081 85.9734 182.572 86.0521 183.254 86.1308C184.146 86.2357 184.881 86.3669 185.458 86.5243C186.048 86.6817 186.56 86.9899 186.992 87.4489C187.438 87.8949 187.661 88.5506 187.661 89.4163C187.661 90.6491 187.209 91.5475 186.304 92.1115C185.412 92.6755 184.31 92.9575 182.999 92.9575H181.976C181.241 92.9575 180.539 92.846 179.871 92.623C179.215 92.3869 178.677 92.0328 178.257 91.5607C177.838 91.0885 177.628 90.5114 177.628 89.8294V89.6523C177.628 89.5737 177.634 89.5146 177.647 89.4753H180.835V89.554C180.835 89.9343 181.005 90.2032 181.346 90.3606C181.687 90.5049 182.081 90.577 182.526 90.577C182.92 90.577 183.294 90.5376 183.648 90.459C184.015 90.3803 184.199 90.2163 184.199 89.9671C184.199 89.7179 184.048 89.5474 183.746 89.4556C183.445 89.3507 182.946 89.2458 182.251 89.1408C181.412 89.0359 180.697 88.8982 180.107 88.7277C179.516 88.5572 179.005 88.249 178.572 87.803C178.152 87.344 177.943 86.7079 177.943 85.8947C177.943 85.134 178.172 84.5045 178.631 84.0061C179.103 83.4946 179.693 83.1208 180.402 82.8847C181.11 82.6355 181.831 82.5109 182.566 82.5109H183.176ZM198.965 89.8491C198.965 90.0983 199.024 90.2819 199.142 90.3999C199.261 90.518 199.405 90.577 199.575 90.577C199.824 90.577 200.054 90.518 200.264 90.3999V92.505C199.844 92.8066 199.182 92.9575 198.277 92.9575C197.437 92.9575 196.795 92.8263 196.349 92.564C195.903 92.2886 195.582 91.8886 195.385 91.3639C195.162 91.7049 194.795 92.0591 194.283 92.4263C193.772 92.7804 193.208 92.9575 192.591 92.9575H192.04C191.503 92.9575 191.004 92.8263 190.545 92.564C190.099 92.3017 189.745 91.9476 189.483 91.5016C189.221 91.0426 189.089 90.5442 189.089 90.0065V82.7076H192.985V89.0031C192.985 89.331 193.083 89.613 193.28 89.8491C193.49 90.072 193.739 90.1835 194.027 90.1835C194.316 90.1835 194.559 90.072 194.755 89.8491C194.965 89.613 195.07 89.331 195.07 89.0031V82.7076H198.965V89.8491ZM206.676 82.5109C208.197 82.5109 209.358 82.806 210.158 83.3962C210.971 83.9864 211.378 84.7537 211.378 85.698V89.8491C211.378 90.0983 211.437 90.2819 211.555 90.3999C211.673 90.518 211.817 90.577 211.988 90.577C212.237 90.577 212.467 90.518 212.676 90.3999V92.505C212.257 92.8066 211.594 92.9575 210.689 92.9575C209.85 92.9575 209.188 92.8198 208.702 92.5443C208.217 92.2558 207.915 91.8623 207.797 91.3639C207.378 91.8492 206.912 92.2361 206.401 92.5247C205.902 92.8132 205.286 92.9575 204.551 92.9575C203.502 92.9575 202.65 92.7542 201.994 92.3476C201.338 91.941 201.01 91.141 201.01 89.9474C201.01 89.0425 201.266 88.3473 201.777 87.8621C202.289 87.3637 203.017 87.0227 203.961 86.8391C204.919 86.6423 206.132 86.544 207.601 86.544V85.9734C207.601 85.6062 207.476 85.3176 207.227 85.1078C206.991 84.8979 206.689 84.793 206.322 84.793C206.02 84.793 205.732 84.8848 205.456 85.0684C205.194 85.2389 205.063 85.4554 205.063 85.7177V85.7964H201.325C201.312 85.757 201.305 85.6652 201.305 85.5209C201.305 84.957 201.495 84.452 201.876 84.0061C202.269 83.547 202.82 83.1864 203.528 82.924C204.25 82.6486 205.082 82.5109 206.027 82.5109H206.676ZM207.601 88.3342C206.735 88.3342 206.099 88.4523 205.692 88.6884C205.286 88.9113 205.082 89.2261 205.082 89.6327C205.082 90.2622 205.476 90.577 206.263 90.577C206.63 90.577 206.945 90.4524 207.207 90.2032C207.469 89.9409 207.601 89.6064 207.601 89.1999V88.3342ZM218.795 82.5109C219.425 82.5109 220.067 82.6158 220.723 82.8257C221.392 83.0224 221.95 83.3241 222.396 83.7307C222.841 84.1372 223.064 84.6291 223.064 85.2062C223.064 85.3242 223.058 85.4357 223.045 85.5406C223.032 85.6324 223.025 85.6914 223.025 85.7177H219.799C219.799 85.4029 219.654 85.1799 219.366 85.0488C219.09 84.9045 218.776 84.8324 218.421 84.8324C217.451 84.8324 216.966 85.0225 216.966 85.4029C216.966 85.639 217.11 85.8029 217.398 85.8947C217.7 85.9734 218.192 86.0521 218.874 86.1308C219.766 86.2357 220.5 86.3669 221.077 86.5243C221.668 86.6817 222.179 86.9899 222.612 87.4489C223.058 87.8949 223.281 88.5506 223.281 89.4163C223.281 90.6491 222.828 91.5475 221.923 92.1115C221.031 92.6755 219.93 92.9575 218.618 92.9575H217.595C216.861 92.9575 216.159 92.846 215.49 92.623C214.834 92.3869 214.297 92.0328 213.877 91.5607C213.457 91.0885 213.247 90.5114 213.247 89.8294V89.6523C213.247 89.5737 213.254 89.5146 213.267 89.4753H216.454V89.554C216.454 89.9343 216.625 90.2032 216.966 90.3606C217.307 90.5049 217.7 90.577 218.146 90.577C218.54 90.577 218.913 90.5376 219.267 90.459C219.635 90.3803 219.818 90.2163 219.818 89.9671C219.818 89.7179 219.667 89.5474 219.366 89.4556C219.064 89.3507 218.566 89.2458 217.871 89.1408C217.031 89.0359 216.316 88.8982 215.726 88.7277C215.136 88.5572 214.625 88.249 214.192 87.803C213.772 87.344 213.562 86.7079 213.562 85.8947C213.562 85.134 213.792 84.5045 214.251 84.0061C214.723 83.4946 215.313 83.1208 216.021 82.8847C216.73 82.6355 217.451 82.5109 218.185 82.5109H218.795ZM232.448 81.4092H228.572V78.5959H232.448V81.4092ZM232.448 92.7607H228.572V82.7273H232.448V92.7607ZM241.161 92.7607L240.807 91.6C240.086 92.505 239.24 92.9575 238.269 92.9575C237.456 92.9575 236.721 92.7673 236.066 92.3869C235.423 92.0066 234.911 91.4361 234.531 90.6754C234.164 89.9015 233.98 88.9572 233.98 87.8424V87.626C233.98 86.5112 234.144 85.5734 234.472 84.8127C234.813 84.0389 235.266 83.4618 235.83 83.0814C236.407 82.7011 237.056 82.5109 237.777 82.5109C239.01 82.5109 239.876 82.924 240.374 83.7503V78.5959H244.269V92.7607H241.161ZM239.154 84.9701C238.813 84.9701 238.525 85.1078 238.289 85.3832C238.053 85.6455 237.935 85.9669 237.935 86.3472V89.1999C237.935 89.5802 238.053 89.9081 238.289 90.1835C238.525 90.4458 238.813 90.577 239.154 90.577C239.495 90.577 239.784 90.4458 240.02 90.1835C240.256 89.9081 240.374 89.5802 240.374 89.1999V86.3472C240.374 85.9669 240.256 85.6455 240.02 85.3832C239.784 85.1078 239.495 84.9701 239.154 84.9701ZM251.639 82.5109C252.649 82.5109 253.514 82.7076 254.236 83.1011C254.97 83.4815 255.528 84.0126 255.908 84.6947C256.301 85.3767 256.498 86.157 256.498 87.0358V88.2555H249.947V89.1999C249.947 89.6458 250.085 89.9868 250.36 90.2229C250.649 90.459 251.016 90.577 251.462 90.577C251.921 90.577 252.268 90.4393 252.504 90.1639C252.754 89.8753 252.878 89.4818 252.878 88.9835H256.478C256.478 89.731 256.282 90.4065 255.888 91.0098C255.508 91.6131 254.944 92.0918 254.196 92.446C253.462 92.787 252.59 92.9575 251.58 92.9575H251.285C250.235 92.9575 249.291 92.7673 248.452 92.3869C247.625 91.9935 246.97 91.4295 246.484 90.695C246.012 89.9474 245.776 89.0621 245.776 88.0391V87.4293C245.776 86.4062 245.999 85.5275 246.445 84.793C246.904 84.0454 247.54 83.4815 248.353 83.1011C249.166 82.7076 250.098 82.5109 251.147 82.5109H251.639ZM251.304 84.8914C250.924 84.8914 250.603 85.0291 250.34 85.3045C250.078 85.5668 249.947 85.8882 249.947 86.2685V86.544H252.662V86.2685C252.662 85.8882 252.531 85.5668 252.268 85.3045C252.006 85.0291 251.685 84.8914 251.304 84.8914ZM261.92 81.4092H258.044V78.5959H261.92V81.4092ZM261.92 92.7607H258.044V82.7273H261.92V92.7607ZM269.039 82.5109C270.561 82.5109 271.721 82.806 272.521 83.3962C273.334 83.9864 273.741 84.7537 273.741 85.698V89.8491C273.741 90.0983 273.8 90.2819 273.918 90.3999C274.036 90.518 274.18 90.577 274.351 90.577C274.6 90.577 274.83 90.518 275.039 90.3999V92.505C274.62 92.8066 273.957 92.9575 273.052 92.9575C272.213 92.9575 271.551 92.8198 271.065 92.5443C270.58 92.2558 270.279 91.8623 270.16 91.3639C269.741 91.8492 269.275 92.2361 268.764 92.5247C268.265 92.8132 267.649 92.9575 266.914 92.9575C265.865 92.9575 265.013 92.7542 264.357 92.3476C263.701 91.941 263.373 91.141 263.373 89.9474C263.373 89.0425 263.629 88.3473 264.14 87.8621C264.652 87.3637 265.38 87.0227 266.324 86.8391C267.282 86.6423 268.495 86.544 269.964 86.544V85.9734C269.964 85.6062 269.839 85.3176 269.59 85.1078C269.354 84.8979 269.052 84.793 268.685 84.793C268.383 84.793 268.095 84.8848 267.819 85.0684C267.557 85.2389 267.426 85.4554 267.426 85.7177V85.7964H263.688C263.675 85.757 263.668 85.6652 263.668 85.5209C263.668 84.957 263.858 84.452 264.239 84.0061C264.632 83.547 265.183 83.1864 265.891 82.924C266.613 82.6486 267.446 82.5109 268.39 82.5109H269.039ZM269.964 88.3342C269.098 88.3342 268.462 88.4523 268.055 88.6884C267.649 88.9113 267.446 89.2261 267.446 89.6327C267.446 90.2622 267.839 90.577 268.626 90.577C268.993 90.577 269.308 90.4524 269.57 90.2032C269.833 89.9409 269.964 89.6064 269.964 89.1999V88.3342ZM281.158 82.5109C281.788 82.5109 282.431 82.6158 283.086 82.8257C283.755 83.0224 284.313 83.3241 284.759 83.7307C285.205 84.1372 285.428 84.6291 285.428 85.2062C285.428 85.3242 285.421 85.4357 285.408 85.5406C285.395 85.6324 285.388 85.6914 285.388 85.7177H282.162C282.162 85.4029 282.017 85.1799 281.729 85.0488C281.453 84.9045 281.139 84.8324 280.785 84.8324C279.814 84.8324 279.329 85.0225 279.329 85.4029C279.329 85.639 279.473 85.8029 279.762 85.8947C280.063 85.9734 280.555 86.0521 281.237 86.1308C282.129 86.2357 282.863 86.3669 283.44 86.5243C284.031 86.6817 284.542 86.9899 284.975 87.4489C285.421 87.8949 285.644 88.5506 285.644 89.4163C285.644 90.6491 285.191 91.5475 284.286 92.1115C283.395 92.6755 282.293 92.9575 280.981 92.9575H279.958C279.224 92.9575 278.522 92.846 277.853 92.623C277.197 92.3869 276.66 92.0328 276.24 91.5607C275.82 91.0885 275.61 90.5114 275.61 89.8294V89.6523C275.61 89.5737 275.617 89.5146 275.63 89.4753H278.817V89.554C278.817 89.9343 278.988 90.2032 279.329 90.3606C279.67 90.5049 280.063 90.577 280.509 90.577C280.903 90.577 281.276 90.5376 281.631 90.459C281.998 90.3803 282.181 90.2163 282.181 89.9671C282.181 89.7179 282.031 89.5474 281.729 89.4556C281.427 89.3507 280.929 89.2458 280.234 89.1408C279.394 89.0359 278.68 88.8982 278.089 88.7277C277.499 88.5572 276.988 88.249 276.555 87.803C276.135 87.344 275.925 86.7079 275.925 85.8947C275.925 85.134 276.155 84.5045 276.614 84.0061C277.086 83.4946 277.676 83.1208 278.384 82.8847C279.093 82.6355 279.814 82.5109 280.549 82.5109H281.158Z" fill="#71719E"/>
</svg>
