<svg width="293" height="98" viewBox="0 0 293 98" fill="none" xmlns="http://www.w3.org/2000/svg">
<path d="M18.7278 16.6291V71H3.77576V16.6291H18.7278ZM41.1445 27.4278H26.2681V16.6291H41.1445V27.4278ZM41.1445 71H26.2681V32.4873H41.1445V71ZM67.8675 31.6566C70.284 31.6566 72.7508 32.0594 75.268 32.8648C77.8355 33.62 79.9751 34.7779 81.6867 36.3385C83.3984 37.8992 84.2543 39.7871 84.2543 42.0022C84.2543 42.4553 84.2291 42.8832 84.1787 43.2859C84.1284 43.6383 84.1032 43.8649 84.1032 43.9656H71.7187C71.7187 42.7573 71.165 41.9015 70.0574 41.3981C69.0002 40.8443 67.792 40.5674 66.4327 40.5674C62.7073 40.5674 60.8446 41.2974 60.8446 42.7573C60.8446 43.6635 61.3983 44.2928 62.5059 44.6452C63.6638 44.9473 65.5517 45.2493 68.1695 45.5514C71.5929 45.9541 74.4121 46.4576 76.6272 47.0617C78.8927 47.6658 80.8561 48.8489 82.5174 50.6109C84.2291 52.3226 85.0849 54.8398 85.0849 58.1624C85.0849 62.8947 83.3481 66.3432 79.8744 68.508C76.451 70.6728 72.2222 71.7552 67.1878 71.7552H63.261C60.4418 71.7552 57.7484 71.3272 55.1809 70.4714C52.6638 69.5652 50.5997 68.2059 48.9887 66.3936C47.3777 64.5812 46.5722 62.3661 46.5722 59.7482V59.0686C46.5722 58.7665 46.5974 58.54 46.6477 58.389H58.8812V58.691C58.8812 60.151 59.5356 61.183 60.8446 61.7872C62.1535 62.3409 63.6638 62.6178 65.3755 62.6178C66.8858 62.6178 68.3206 62.4668 69.6798 62.1647C71.0895 61.8627 71.7943 61.2334 71.7943 60.2768C71.7943 59.3203 71.2153 58.6659 70.0574 58.3135C68.8995 57.9107 66.9865 57.508 64.3183 57.1052C61.0963 56.7025 58.3526 56.1739 56.0871 55.5194C53.8217 54.8649 51.8583 53.6819 50.1969 51.9702C48.5859 50.2082 47.7804 47.7665 47.7804 44.6452C47.7804 41.7253 48.6615 39.3088 50.4235 37.3958C52.2358 35.4324 54.5013 33.9976 57.2198 33.0914C59.9384 32.1349 62.7073 31.6566 65.5265 31.6566H67.8675ZM130.212 31.6566H117.073V71H101.366V31.6566H88.2259V19.1966H130.212V31.6566ZM160.565 18.5925C164.693 18.5925 168.469 19.6245 171.892 21.6886C175.366 23.7023 178.109 26.4461 180.123 29.9198C182.187 33.3431 183.219 37.1189 183.219 41.247V49.1006C183.219 53.2288 182.187 57.0297 180.123 60.5034C178.109 63.9267 175.366 66.6705 171.892 68.7345C168.469 70.7483 164.693 71.7552 160.565 71.7552H156.336C152.208 71.7552 148.407 70.7483 144.933 68.7345C141.51 66.6705 138.766 63.9267 136.702 60.5034C134.688 57.0297 133.681 53.2288 133.681 49.1006V41.247C133.681 37.1189 134.688 33.3431 136.702 29.9198C138.766 26.4461 141.51 23.7023 144.933 21.6886C148.407 19.6245 152.208 18.5925 156.336 18.5925H160.565ZM158.299 30.2218C156.185 30.2218 154.398 30.9518 152.938 32.4118C151.478 33.8717 150.748 35.6589 150.748 37.7733V52.3478C150.748 54.4622 151.478 56.2494 152.938 57.7093C154.398 59.1693 156.185 59.8993 158.299 59.8993H158.677C160.791 59.8993 162.578 59.1693 164.038 57.7093C165.498 56.2494 166.228 54.4622 166.228 52.3478V37.7733C166.228 35.6589 165.498 33.8717 164.038 32.4118C162.578 30.9518 160.791 30.2218 158.677 30.2218H158.299ZM213.182 19.1966C217.31 19.1966 221.086 20.2286 224.509 22.2927C227.983 24.3065 230.726 27.0502 232.74 30.5239C234.804 33.9472 235.836 37.723 235.836 41.8512V48.3455C235.836 52.4736 234.804 56.2745 232.74 59.7482C230.726 63.1716 227.983 65.9153 224.509 67.9794C221.086 69.9931 217.31 71 213.182 71H189.847V19.1966H213.182ZM205.857 58.9931H211.671C213.786 58.9931 215.573 58.2631 217.033 56.8032C218.493 55.3432 219.223 53.556 219.223 51.4416V38.5285C219.223 36.4141 218.493 34.6269 217.033 33.1669C215.573 31.7069 213.786 30.977 211.671 30.977H205.857V58.9931ZM267.348 18.5925C271.476 18.5925 275.252 19.6245 278.675 21.6886C282.149 23.7023 284.893 26.4461 286.906 29.9198C288.97 33.3431 290.002 37.1189 290.002 41.247V49.1006C290.002 53.2288 288.97 57.0297 286.906 60.5034C284.893 63.9267 282.149 66.6705 278.675 68.7345C275.252 70.7483 271.476 71.7552 267.348 71.7552H263.119C258.991 71.7552 255.19 70.7483 251.716 68.7345C248.293 66.6705 245.549 63.9267 243.485 60.5034C241.471 57.0297 240.464 53.2288 240.464 49.1006V41.247C240.464 37.1189 241.471 33.3431 243.485 29.9198C245.549 26.4461 248.293 23.7023 251.716 21.6886C255.19 19.6245 258.991 18.5925 263.119 18.5925H267.348ZM265.082 30.2218C262.968 30.2218 261.181 30.9518 259.721 32.4118C258.261 33.8717 257.531 35.6589 257.531 37.7733V52.3478C257.531 54.4622 258.261 56.2494 259.721 57.7093C261.181 59.1693 262.968 59.8993 265.082 59.8993H265.46C267.574 59.8993 269.362 59.1693 270.822 57.7093C272.281 56.2494 273.011 54.4622 273.011 52.3478V37.7733C273.011 35.6589 272.281 33.8717 270.822 32.4118C269.362 30.9518 267.574 30.2218 265.46 30.2218H265.082Z" fill="#52527A"/>
<path d="M6.93426 79.416C7.91377 79.416 8.80967 79.6609 9.62195 80.1506C10.4462 80.6284 11.0972 81.2795 11.575 82.1037C12.0648 82.916 12.3096 83.8119 12.3096 84.7914V86.6549C12.3096 87.6344 12.0648 88.5362 11.575 89.3605C11.0972 90.1728 10.4462 90.8238 9.62195 91.3135C8.80967 91.7913 7.91377 92.0303 6.93426 92.0303H5.93085C4.95133 92.0303 4.04946 91.7913 3.22524 91.3135C2.41295 90.8238 1.76193 90.1728 1.27218 89.3605C0.794363 88.5362 0.555457 87.6344 0.555457 86.6549V84.7914C0.555457 83.8119 0.794363 82.916 1.27218 82.1037C1.76193 81.2795 2.41295 80.6284 3.22524 80.1506C4.04946 79.6609 4.95133 79.416 5.93085 79.416H6.93426ZM6.39672 82.1754C5.89501 82.1754 5.47095 82.3486 5.12454 82.695C4.77813 83.0414 4.60492 83.4655 4.60492 83.9672V87.4253C4.60492 87.927 4.77813 88.3511 5.12454 88.6975C5.47095 89.0439 5.89501 89.2171 6.39672 89.2171H6.48631C6.98801 89.2171 7.41207 89.0439 7.75848 88.6975C8.1049 88.3511 8.2781 87.927 8.2781 87.4253V83.9672C8.2781 83.4655 8.1049 83.0414 7.75848 82.695C7.41207 82.3486 6.98801 82.1754 6.48631 82.1754H6.39672ZM19.2219 82.5158C20.0103 82.5158 20.6195 82.7368 21.0496 83.1788C21.4915 83.6088 21.7125 84.2061 21.7125 84.9706V85.2752L21.6767 85.9561L21.6409 86.404H18.7381V85.974C18.7381 85.7231 18.6605 85.5141 18.5052 85.3469C18.3619 85.1677 18.1887 85.0781 17.9856 85.0781C17.7706 85.0781 17.5854 85.1677 17.4301 85.3469C17.2868 85.5141 17.2151 85.7231 17.2151 85.974V91.8511H13.7569V82.695H16.4088L16.803 84.0209C16.8747 83.8776 17.012 83.6865 17.2151 83.4475C17.4182 83.2086 17.6929 82.9936 18.0393 82.8025C18.3858 82.6114 18.7799 82.5158 19.2219 82.5158ZM32.4787 81.0465C32.4787 81.7394 32.3115 82.2709 31.977 82.6412C31.6545 83.0115 31.1647 83.2863 30.5077 83.4655C30.8303 83.7163 31.0751 84.009 31.2424 84.3434C31.4215 84.6779 31.5111 85.0243 31.5111 85.3827C31.5111 85.9083 31.3499 86.3921 31.0273 86.834C30.7048 87.276 30.2688 87.6284 29.7193 87.8912C29.1699 88.1421 28.5726 88.2675 27.9275 88.2675H26.6912C26.3448 88.2675 26.088 88.3212 25.9207 88.4287C25.7535 88.5243 25.6699 88.6497 25.6699 88.805C25.6699 88.9842 25.7415 89.1216 25.8849 89.2171C26.0282 89.3127 26.297 89.3605 26.6912 89.3605H29.6118C30.5675 89.3605 31.2842 89.6173 31.762 90.1309C32.2398 90.6327 32.4787 91.3076 32.4787 92.1557C32.4787 92.6932 32.3115 93.1949 31.977 93.6608C31.6545 94.1386 31.2185 94.5149 30.669 94.7896C30.1195 95.0763 29.5282 95.2197 28.8951 95.2197H24.1468C23.5615 95.2197 23.0539 95.0106 22.6238 94.5925C22.2057 94.1744 21.9967 93.6668 21.9967 93.0695V92.9799C21.9967 92.5618 22.1281 92.1796 22.3909 91.8332C22.6537 91.4748 22.9762 91.206 23.3585 91.0268C23.0957 90.8477 22.8866 90.6207 22.7313 90.346C22.576 90.0712 22.4984 89.7786 22.4984 89.468C22.4984 89.026 22.6537 88.6258 22.9643 88.2675C23.2868 87.9091 23.681 87.6702 24.1468 87.5508C23.7288 87.276 23.3943 86.9535 23.1434 86.5832C22.8926 86.2129 22.7672 85.8187 22.7672 85.4006C22.7672 84.5525 23.1195 83.8597 23.8243 83.3221C24.5291 82.7846 25.5504 82.5158 26.8883 82.5158H27.39C27.82 82.5158 28.2142 82.5516 28.5726 82.6233C29.0265 82.3247 29.349 82.038 29.5402 81.7633C29.7313 81.4766 29.8268 81.2377 29.8268 81.0465H32.4787ZM27.2108 84.2718C26.9002 84.2718 26.6374 84.3853 26.4224 84.6122C26.2194 84.8272 26.1178 85.09 26.1178 85.4006C26.1178 85.7112 26.2194 85.98 26.4224 86.2069C26.6374 86.4219 26.9002 86.5294 27.2108 86.5294C27.5214 86.5294 27.7782 86.4219 27.9813 86.2069C28.1963 85.98 28.3038 85.7112 28.3038 85.4006C28.3038 85.09 28.1963 84.8272 27.9813 84.6122C27.7782 84.3853 27.5214 84.2718 27.2108 84.2718ZM25.8311 91.8511C25.5803 91.8511 25.3653 91.9227 25.1861 92.0661C25.0189 92.2094 24.9352 92.3826 24.9352 92.5857C24.9352 92.7888 25.0189 92.962 25.1861 93.1053C25.3653 93.2606 25.5803 93.3383 25.8311 93.3383H28.3934C28.6443 93.3383 28.8533 93.2666 29.0205 93.1233C29.1997 92.9799 29.2893 92.8067 29.2893 92.6036C29.2893 92.4006 29.1997 92.2214 29.0205 92.0661C28.8533 91.9227 28.6443 91.8511 28.3934 91.8511H25.8311ZM38.0842 82.5158C39.4699 82.5158 40.527 82.7846 41.2557 83.3221C41.9963 83.8597 42.3666 84.5585 42.3666 85.4185V89.1992C42.3666 89.4262 42.4204 89.5934 42.5279 89.7009C42.6354 89.8084 42.7668 89.8622 42.9221 89.8622C43.149 89.8622 43.3581 89.8084 43.5492 89.7009V91.6181C43.167 91.8929 42.5637 92.0303 41.7395 92.0303C40.975 92.0303 40.3718 91.9048 39.9298 91.654C39.4878 91.3912 39.2131 91.0328 39.1056 90.5789C38.7233 91.0209 38.2992 91.3733 37.8334 91.6361C37.3795 91.8989 36.818 92.0303 36.1491 92.0303C35.1935 92.0303 34.417 91.8451 33.8198 91.4748C33.2225 91.1045 32.9239 90.3758 32.9239 89.2888C32.9239 88.4646 33.1568 87.8315 33.6227 87.3895C34.0885 86.9356 34.7515 86.625 35.6116 86.4578C36.4836 86.2786 37.5885 86.189 38.9264 86.189V85.6694C38.9264 85.3349 38.8129 85.0721 38.5859 84.881C38.3709 84.6899 38.0962 84.5943 37.7617 84.5943C37.487 84.5943 37.2242 84.6779 36.9733 84.8451C36.7344 85.0004 36.615 85.1975 36.615 85.4364V85.5081H33.2105C33.1986 85.4723 33.1926 85.3887 33.1926 85.2573C33.1926 84.7436 33.3658 84.2837 33.7122 83.8776C34.0706 83.4595 34.5723 83.131 35.2174 82.8921C35.8743 82.6412 36.6329 82.5158 37.4929 82.5158H38.0842ZM38.9264 87.8195C38.138 87.8195 37.5586 87.927 37.1883 88.1421C36.818 88.3451 36.6329 88.6318 36.6329 89.0021C36.6329 89.5755 36.9912 89.8622 37.708 89.8622C38.0424 89.8622 38.3291 89.7487 38.568 89.5217C38.8069 89.2828 38.9264 88.9782 38.9264 88.6079V87.8195ZM50.8781 82.5158C51.3678 82.5158 51.8158 82.6353 52.2219 82.8742C52.64 83.1131 52.9685 83.4416 53.2074 83.8597C53.4463 84.2658 53.5658 84.7137 53.5658 85.2035V91.8511H50.018V86.1173C50.018 85.8187 49.9225 85.5678 49.7313 85.3648C49.5522 85.1498 49.3312 85.0422 49.0684 85.0422C48.8056 85.0422 48.5786 85.1498 48.3875 85.3648C48.2083 85.5678 48.1187 85.8187 48.1187 86.1173V91.8511H44.571V82.695H47.2407L47.5991 84.0209C48.2561 83.0175 49.1818 82.5158 50.3764 82.5158H50.8781ZM58.8271 81.5124H55.2972V78.9501H58.8271V81.5124ZM58.8271 91.8511H55.2972V82.7129H58.8271V91.8511ZM68.0705 82.695V83.7701L64.684 89.6292H68.2139V91.8511H60.1149V90.7222L63.4835 84.9168H60.312V82.695H68.0705ZM74.4681 82.5158C75.3879 82.5158 76.1763 82.695 76.8332 83.0533C77.5022 83.3998 78.0099 83.8835 78.3563 84.5047C78.7146 85.1259 78.8938 85.8366 78.8938 86.6369V87.7479H72.9271V88.6079C72.9271 89.0141 73.0526 89.3246 73.3034 89.5397C73.5662 89.7547 73.9007 89.8622 74.3068 89.8622C74.7249 89.8622 75.0414 89.7368 75.2565 89.4859C75.4834 89.2231 75.5969 88.8647 75.5969 88.4108H78.8759C78.8759 89.0917 78.6967 89.7069 78.3384 90.2564C77.9919 90.8059 77.4783 91.2419 76.7974 91.5644C76.1285 91.875 75.3341 92.0303 74.4143 92.0303H74.1455C73.1899 92.0303 72.3299 91.857 71.5654 91.5106C70.8128 91.1523 70.2155 90.6386 69.7736 89.9697C69.3435 89.2888 69.1285 88.4825 69.1285 87.5508V86.9953C69.1285 86.0636 69.3316 85.2632 69.7377 84.5943C70.1558 83.9134 70.7352 83.3998 71.4758 83.0533C72.2164 82.695 73.0645 82.5158 74.0201 82.5158H74.4681ZM74.1635 84.6839C73.8171 84.6839 73.5244 84.8093 73.2855 85.0602C73.0466 85.2991 72.9271 85.5917 72.9271 85.9381V86.189H75.3998V85.9381C75.3998 85.5917 75.2804 85.2991 75.0414 85.0602C74.8025 84.8093 74.5099 84.6839 74.1635 84.6839ZM89.7336 91.206C89.2917 92.4244 88.6884 93.392 87.9239 94.1087C87.1594 94.8374 86.2456 95.2017 85.1825 95.2017C84.3702 95.2017 83.7789 95.1121 83.4086 94.933V92.6215C83.5519 92.6932 83.749 92.7529 83.9999 92.8007C84.2627 92.8485 84.5135 92.8724 84.7524 92.8724C85.2302 92.8724 85.5587 92.747 85.7379 92.4961C85.929 92.2572 86.0664 91.9526 86.15 91.5823L82.7815 82.695H86.5621L87.9777 87.4433H88.121L89.3215 82.695H92.8155L89.7336 91.206ZM98.5445 82.5158C99.4404 82.5158 100.247 82.7129 100.963 83.1071C101.692 83.4894 102.26 84.0269 102.666 84.7197C103.084 85.4125 103.293 86.2009 103.293 87.0849V87.4612C103.293 88.3571 103.084 89.1514 102.666 89.8443C102.26 90.5371 101.692 91.0746 100.963 91.4569C100.247 91.8391 99.4404 92.0303 98.5445 92.0303H97.9711C97.0752 92.0303 96.263 91.8391 95.5343 91.4569C94.8176 91.0627 94.2502 90.5192 93.8321 89.8263C93.4259 89.1335 93.2229 88.3451 93.2229 87.4612V87.0849C93.2229 86.2009 93.4259 85.4125 93.8321 84.7197C94.2502 84.0269 94.8176 83.4894 95.5343 83.1071C96.263 82.7129 97.0752 82.5158 97.9711 82.5158H98.5445ZM98.2578 84.6839C97.9114 84.6839 97.6187 84.8093 97.3798 85.0602C97.1409 85.2991 97.0215 85.5917 97.0215 85.9381V88.6079C97.0215 88.9543 97.1409 89.253 97.3798 89.5038C97.6187 89.7427 97.9114 89.8622 98.2578 89.8622C98.6042 89.8622 98.8969 89.7427 99.1358 89.5038C99.3747 89.253 99.4942 88.9543 99.4942 88.6079V85.9381C99.4942 85.5917 99.3747 85.2991 99.1358 85.0602C98.8969 84.8093 98.6042 84.6839 98.2578 84.6839ZM113.582 89.1992C113.582 89.4262 113.636 89.5934 113.744 89.7009C113.851 89.8084 113.982 89.8622 114.138 89.8622C114.365 89.8622 114.574 89.8084 114.765 89.7009V91.6181C114.383 91.8929 113.779 92.0303 112.955 92.0303C112.191 92.0303 111.605 91.9108 111.199 91.6719C110.793 91.421 110.5 91.0567 110.321 90.5789C110.118 90.8895 109.784 91.212 109.318 91.5465C108.852 91.869 108.338 92.0303 107.777 92.0303H107.275C106.785 92.0303 106.332 91.9108 105.913 91.6719C105.507 91.433 105.185 91.1105 104.946 90.7043C104.707 90.2862 104.587 89.8323 104.587 89.3426V82.695H108.135V88.4287C108.135 88.7274 108.225 88.9842 108.404 89.1992C108.595 89.4023 108.822 89.5038 109.085 89.5038C109.348 89.5038 109.569 89.4023 109.748 89.1992C109.939 88.9842 110.035 88.7274 110.035 88.4287V82.695H113.582V89.1992ZM121.375 82.5158C122.164 82.5158 122.773 82.7368 123.203 83.1788C123.645 83.6088 123.866 84.2061 123.866 84.9706V85.2752L123.83 85.9561L123.794 86.404H120.892V85.974C120.892 85.7231 120.814 85.5141 120.659 85.3469C120.515 85.1677 120.342 85.0781 120.139 85.0781C119.924 85.0781 119.739 85.1677 119.584 85.3469C119.44 85.5141 119.369 85.7231 119.369 85.974V91.8511H115.91V82.695H118.562L118.956 84.0209C119.028 83.8776 119.165 83.6865 119.369 83.4475C119.572 83.2086 119.846 82.9936 120.193 82.8025C120.539 82.6114 120.933 82.5158 121.375 82.5158ZM134.567 91.8511L134.245 90.7939C133.588 91.6181 132.817 92.0303 131.933 92.0303C131.193 92.0303 130.524 91.857 129.927 91.5106C129.341 91.1642 128.875 90.6446 128.529 89.9518C128.195 89.247 128.027 88.3869 128.027 87.3716V87.1745C128.027 86.1591 128.177 85.305 128.475 84.6122C128.786 83.9074 129.198 83.3818 129.712 83.0354C130.237 82.689 130.828 82.5158 131.485 82.5158C132.608 82.5158 133.397 82.8921 133.851 83.6446V78.9501H137.398V91.8511H134.567ZM132.74 84.7556C132.429 84.7556 132.166 84.881 131.951 85.1318C131.736 85.3707 131.629 85.6634 131.629 86.0098V88.6079C131.629 88.9543 131.736 89.253 131.951 89.5038C132.166 89.7427 132.429 89.8622 132.74 89.8622C133.05 89.8622 133.313 89.7427 133.528 89.5038C133.743 89.253 133.851 88.9543 133.851 88.6079V86.0098C133.851 85.6634 133.743 85.3707 133.528 85.1318C133.313 84.881 133.05 84.7556 132.74 84.7556ZM143.877 82.5158C145.263 82.5158 146.32 82.7846 147.049 83.3221C147.789 83.8597 148.16 84.5585 148.16 85.4185V89.1992C148.16 89.4262 148.213 89.5934 148.321 89.7009C148.428 89.8084 148.56 89.8622 148.715 89.8622C148.942 89.8622 149.151 89.8084 149.342 89.7009V91.6181C148.96 91.8929 148.357 92.0303 147.533 92.0303C146.768 92.0303 146.165 91.9048 145.723 91.654C145.281 91.3912 145.006 91.0328 144.899 90.5789C144.516 91.0209 144.092 91.3733 143.626 91.6361C143.172 91.8989 142.611 92.0303 141.942 92.0303C140.986 92.0303 140.21 91.8451 139.613 91.4748C139.016 91.1045 138.717 90.3758 138.717 89.2888C138.717 88.4646 138.95 87.8315 139.416 87.3895C139.882 86.9356 140.545 86.625 141.405 86.4578C142.277 86.2786 143.382 86.189 144.719 86.189V85.6694C144.719 85.3349 144.606 85.0721 144.379 84.881C144.164 84.6899 143.889 84.5943 143.555 84.5943C143.28 84.5943 143.017 84.6779 142.766 84.8451C142.527 85.0004 142.408 85.1975 142.408 85.4364V85.5081H139.004C138.992 85.4723 138.986 85.3887 138.986 85.2573C138.986 84.7436 139.159 84.2837 139.505 83.8776C139.864 83.4595 140.365 83.131 141.01 82.8921C141.667 82.6412 142.426 82.5158 143.286 82.5158H143.877ZM144.719 87.8195C143.931 87.8195 143.352 87.927 142.981 88.1421C142.611 88.3451 142.426 88.6318 142.426 89.0021C142.426 89.5755 142.784 89.8622 143.501 89.8622C143.835 89.8622 144.122 89.7487 144.361 89.5217C144.6 89.2828 144.719 88.9782 144.719 88.6079V87.8195ZM156.349 91.206C155.907 92.4244 155.303 93.392 154.539 94.1087C153.774 94.8374 152.861 95.2017 151.797 95.2017C150.985 95.2017 150.394 95.1121 150.024 94.933V92.6215C150.167 92.6932 150.364 92.7529 150.615 92.8007C150.878 92.8485 151.128 92.8724 151.367 92.8724C151.845 92.8724 152.174 92.747 152.353 92.4961C152.544 92.2572 152.681 91.9526 152.765 91.5823L149.396 82.695H153.177L154.593 87.4433H154.736L155.936 82.695H159.43L156.349 91.206ZM168.409 82.5158C169.795 82.5158 170.852 82.7846 171.581 83.3221C172.322 83.8597 172.692 84.5585 172.692 85.4185V89.1992C172.692 89.4262 172.746 89.5934 172.853 89.7009C172.961 89.8084 173.092 89.8622 173.247 89.8622C173.474 89.8622 173.683 89.8084 173.874 89.7009V91.6181C173.492 91.8929 172.889 92.0303 172.065 92.0303C171.3 92.0303 170.697 91.9048 170.255 91.654C169.813 91.3912 169.538 91.0328 169.431 90.5789C169.049 91.0209 168.624 91.3733 168.159 91.6361C167.705 91.8989 167.143 92.0303 166.474 92.0303C165.519 92.0303 164.742 91.8451 164.145 91.4748C163.548 91.1045 163.249 90.3758 163.249 89.2888C163.249 88.4646 163.482 87.8315 163.948 87.3895C164.414 86.9356 165.077 86.625 165.937 86.4578C166.809 86.2786 167.914 86.189 169.252 86.189V85.6694C169.252 85.3349 169.138 85.0721 168.911 84.881C168.696 84.6899 168.421 84.5943 168.087 84.5943C167.812 84.5943 167.549 84.6779 167.299 84.8451C167.06 85.0004 166.94 85.1975 166.94 85.4364V85.5081H163.536C163.524 85.4723 163.518 85.3887 163.518 85.2573C163.518 84.7436 163.691 84.2837 164.037 83.8776C164.396 83.4595 164.898 83.131 165.543 82.8921C166.2 82.6412 166.958 82.5158 167.818 82.5158H168.409ZM169.252 87.8195C168.463 87.8195 167.884 87.927 167.514 88.1421C167.143 88.3451 166.958 88.6318 166.958 89.0021C166.958 89.5755 167.316 89.8622 168.033 89.8622C168.368 89.8622 168.654 89.7487 168.893 89.5217C169.132 89.2828 169.252 88.9782 169.252 88.6079V87.8195ZM181.203 82.5158C181.693 82.5158 182.141 82.6353 182.547 82.8742C182.965 83.1131 183.294 83.4416 183.533 83.8597C183.772 84.2658 183.891 84.7137 183.891 85.2035V91.8511H180.343V86.1173C180.343 85.8187 180.248 85.5678 180.057 85.3648C179.877 85.1498 179.656 85.0422 179.394 85.0422C179.131 85.0422 178.904 85.1498 178.713 85.3648C178.534 85.5678 178.444 85.8187 178.444 86.1173V91.8511H174.896V82.695H177.566L177.924 84.0209C178.581 83.0175 179.507 82.5158 180.702 82.5158H181.203ZM191.768 91.8511L191.446 90.7939C190.789 91.6181 190.018 92.0303 189.134 92.0303C188.394 92.0303 187.725 91.857 187.128 91.5106C186.542 91.1642 186.076 90.6446 185.73 89.9518C185.396 89.247 185.228 88.3869 185.228 87.3716V87.1745C185.228 86.1591 185.378 85.305 185.676 84.6122C185.987 83.9074 186.399 83.3818 186.913 83.0354C187.438 82.689 188.029 82.5158 188.686 82.5158C189.809 82.5158 190.598 82.8921 191.052 83.6446V78.9501H194.599V91.8511H191.768ZM189.941 84.7556C189.63 84.7556 189.367 84.881 189.152 85.1318C188.937 85.3707 188.83 85.6634 188.83 86.0098V88.6079C188.83 88.9543 188.937 89.253 189.152 89.5038C189.367 89.7427 189.63 89.8622 189.941 89.8622C190.251 89.8622 190.514 89.7427 190.729 89.5038C190.944 89.253 191.052 88.9543 191.052 88.6079V86.0098C191.052 85.6634 190.944 85.3707 190.729 85.1318C190.514 84.881 190.251 84.7556 189.941 84.7556ZM205.815 91.206C205.374 92.4244 204.77 93.392 204.006 94.1087C203.241 94.8374 202.327 95.2017 201.264 95.2017C200.452 95.2017 199.861 95.1121 199.49 94.933V92.6215C199.634 92.6932 199.831 92.7529 200.082 92.8007C200.345 92.8485 200.595 92.8724 200.834 92.8724C201.312 92.8724 201.641 92.747 201.82 92.4961C202.011 92.2572 202.148 91.9526 202.232 91.5823L198.863 82.695H202.644L204.06 87.4433H204.203L205.403 82.695H208.897L205.815 91.206ZM214.626 82.5158C215.522 82.5158 216.329 82.7129 217.045 83.1071C217.774 83.4894 218.341 84.0269 218.748 84.7197C219.166 85.4125 219.375 86.2009 219.375 87.0849V87.4612C219.375 88.3571 219.166 89.1514 218.748 89.8443C218.341 90.5371 217.774 91.0746 217.045 91.4569C216.329 91.8391 215.522 92.0303 214.626 92.0303H214.053C213.157 92.0303 212.345 91.8391 211.616 91.4569C210.899 91.0627 210.332 90.5192 209.914 89.8263C209.508 89.1335 209.305 88.3451 209.305 87.4612V87.0849C209.305 86.2009 209.508 85.4125 209.914 84.7197C210.332 84.0269 210.899 83.4894 211.616 83.1071C212.345 82.7129 213.157 82.5158 214.053 82.5158H214.626ZM214.34 84.6839C213.993 84.6839 213.701 84.8093 213.462 85.0602C213.223 85.2991 213.103 85.5917 213.103 85.9381V88.6079C213.103 88.9543 213.223 89.253 213.462 89.5038C213.701 89.7427 213.993 89.8622 214.34 89.8622C214.686 89.8622 214.979 89.7427 215.218 89.5038C215.457 89.253 215.576 88.9543 215.576 88.6079V85.9381C215.576 85.5917 215.457 85.2991 215.218 85.0602C214.979 84.8093 214.686 84.6839 214.34 84.6839ZM229.664 89.1992C229.664 89.4262 229.718 89.5934 229.825 89.7009C229.933 89.8084 230.064 89.8622 230.22 89.8622C230.447 89.8622 230.656 89.8084 230.847 89.7009V91.6181C230.465 91.8929 229.861 92.0303 229.037 92.0303C228.273 92.0303 227.687 91.9108 227.281 91.6719C226.875 91.421 226.582 91.0567 226.403 90.5789C226.2 90.8895 225.866 91.212 225.4 91.5465C224.934 91.869 224.42 92.0303 223.859 92.0303H223.357C222.867 92.0303 222.413 91.9108 221.995 91.6719C221.589 91.433 221.267 91.1105 221.028 90.7043C220.789 90.2862 220.669 89.8323 220.669 89.3426V82.695H224.217V88.4287C224.217 88.7274 224.307 88.9842 224.486 89.1992C224.677 89.4023 224.904 89.5038 225.167 89.5038C225.43 89.5038 225.651 89.4023 225.83 89.1992C226.021 88.9842 226.116 88.7274 226.116 88.4287V82.695H229.664V89.1992ZM237.457 82.5158C238.246 82.5158 238.855 82.7368 239.285 83.1788C239.727 83.6088 239.948 84.2061 239.948 84.9706V85.2752L239.912 85.9561L239.876 86.404H236.973V85.974C236.973 85.7231 236.896 85.5141 236.741 85.3469C236.597 85.1677 236.424 85.0781 236.221 85.0781C236.006 85.0781 235.821 85.1677 235.665 85.3469C235.522 85.5141 235.45 85.7231 235.45 85.974V91.8511H231.992V82.695H234.644L235.038 84.0209C235.11 83.8776 235.247 83.6865 235.45 83.4475C235.653 83.2086 235.928 82.9936 236.275 82.8025C236.621 82.6114 237.015 82.5158 237.457 82.5158ZM248.033 81.5124H244.503V78.9501H248.033V81.5124ZM248.033 91.8511H244.503V82.7129H248.033V91.8511ZM255.969 91.8511L255.646 90.7939C254.989 91.6181 254.219 92.0303 253.335 92.0303C252.594 92.0303 251.925 91.857 251.328 91.5106C250.743 91.1642 250.277 90.6446 249.93 89.9518C249.596 89.247 249.429 88.3869 249.429 87.3716V87.1745C249.429 86.1591 249.578 85.305 249.876 84.6122C250.187 83.9074 250.599 83.3818 251.113 83.0354C251.638 82.689 252.23 82.5158 252.887 82.5158C254.01 82.5158 254.798 82.8921 255.252 83.6446V78.9501H258.8V91.8511H255.969ZM254.141 84.7556C253.83 84.7556 253.568 84.881 253.353 85.1318C253.138 85.3707 253.03 85.6634 253.03 86.0098V88.6079C253.03 88.9543 253.138 89.253 253.353 89.5038C253.568 89.7427 253.83 89.8622 254.141 89.8622C254.452 89.8622 254.714 89.7427 254.929 89.5038C255.144 89.253 255.252 88.9543 255.252 88.6079V86.0098C255.252 85.6634 255.144 85.3707 254.929 85.1318C254.714 84.881 254.452 84.7556 254.141 84.7556ZM265.511 82.5158C266.431 82.5158 267.22 82.695 267.877 83.0533C268.546 83.3998 269.053 83.8835 269.4 84.5047C269.758 85.1259 269.937 85.8366 269.937 86.6369V87.7479H263.971V88.6079C263.971 89.0141 264.096 89.3246 264.347 89.5397C264.61 89.7547 264.944 89.8622 265.35 89.8622C265.768 89.8622 266.085 89.7368 266.3 89.4859C266.527 89.2231 266.64 88.8647 266.64 88.4108H269.919C269.919 89.0917 269.74 89.7069 269.382 90.2564C269.035 90.8059 268.522 91.2419 267.841 91.5644C267.172 91.875 266.377 92.0303 265.458 92.0303H265.189C264.233 92.0303 263.373 91.857 262.609 91.5106C261.856 91.1523 261.259 90.6386 260.817 89.9697C260.387 89.2888 260.172 88.4825 260.172 87.5508V86.9953C260.172 86.0636 260.375 85.2632 260.781 84.5943C261.199 83.9134 261.779 83.3998 262.519 83.0533C263.26 82.695 264.108 82.5158 265.064 82.5158H265.511ZM265.207 84.6839C264.86 84.6839 264.568 84.8093 264.329 85.0602C264.09 85.2991 263.971 85.5917 263.971 85.9381V86.189H266.443V85.9381C266.443 85.5917 266.324 85.2991 266.085 85.0602C265.846 84.8093 265.553 84.6839 265.207 84.6839ZM276.04 82.5158C277.425 82.5158 278.483 82.7846 279.211 83.3221C279.952 83.8597 280.322 84.5585 280.322 85.4185V89.1992C280.322 89.4262 280.376 89.5934 280.483 89.7009C280.591 89.8084 280.722 89.8622 280.878 89.8622C281.105 89.8622 281.314 89.8084 281.505 89.7009V91.6181C281.123 91.8929 280.519 92.0303 279.695 92.0303C278.931 92.0303 278.327 91.9048 277.885 91.654C277.443 91.3912 277.169 91.0328 277.061 90.5789C276.679 91.0209 276.255 91.3733 275.789 91.6361C275.335 91.8989 274.774 92.0303 274.105 92.0303C273.149 92.0303 272.373 91.8451 271.775 91.4748C271.178 91.1045 270.879 90.3758 270.879 89.2888C270.879 88.4646 271.112 87.8315 271.578 87.3895C272.044 86.9356 272.707 86.625 273.567 86.4578C274.439 86.2786 275.544 86.189 276.882 86.189V85.6694C276.882 85.3349 276.768 85.0721 276.542 84.881C276.326 84.6899 276.052 84.5943 275.717 84.5943C275.443 84.5943 275.18 84.6779 274.929 84.8451C274.69 85.0004 274.571 85.1975 274.571 85.4364V85.5081H271.166C271.154 85.4723 271.148 85.3887 271.148 85.2573C271.148 84.7436 271.321 84.2837 271.668 83.8776C272.026 83.4595 272.528 83.131 273.173 82.8921C273.83 82.6412 274.588 82.5158 275.449 82.5158H276.04ZM276.882 87.8195C276.094 87.8195 275.514 87.927 275.144 88.1421C274.774 88.3451 274.588 88.6318 274.588 89.0021C274.588 89.5755 274.947 89.8622 275.664 89.8622C275.998 89.8622 276.285 89.7487 276.524 89.5217C276.763 89.2828 276.882 88.9782 276.882 88.6079V87.8195ZM287.078 82.5158C287.651 82.5158 288.236 82.6114 288.834 82.8025C289.443 82.9817 289.951 83.2564 290.357 83.6267C290.763 83.997 290.966 84.445 290.966 84.9706C290.966 85.0781 290.96 85.1796 290.948 85.2752C290.936 85.3588 290.93 85.4125 290.93 85.4364H287.991C287.991 85.1498 287.86 84.9467 287.597 84.8272C287.346 84.6958 287.06 84.6301 286.737 84.6301C285.853 84.6301 285.411 84.8033 285.411 85.1498C285.411 85.3648 285.543 85.5141 285.806 85.5977C286.08 85.6694 286.528 85.741 287.149 85.8127C287.962 85.9083 288.631 86.0277 289.156 86.1711C289.694 86.3144 290.16 86.5951 290.554 87.0132C290.96 87.4194 291.163 88.0166 291.163 88.805C291.163 89.9279 290.751 90.7461 289.927 91.2598C289.114 91.7734 288.111 92.0303 286.916 92.0303H285.985C285.316 92.0303 284.677 91.9287 284.067 91.7256C283.47 91.5106 282.98 91.1881 282.598 90.7581C282.216 90.328 282.025 89.8025 282.025 89.1813V89.02C282.025 88.9484 282.031 88.8946 282.043 88.8588H284.945V88.9304C284.945 89.2769 285.101 89.5217 285.411 89.6651C285.722 89.7965 286.08 89.8622 286.486 89.8622C286.845 89.8622 287.185 89.8263 287.508 89.7547C287.842 89.683 288.009 89.5337 288.009 89.3067C288.009 89.0798 287.872 88.9245 287.597 88.8409C287.323 88.7453 286.869 88.6497 286.236 88.5542C285.471 88.4586 284.82 88.3332 284.282 88.1779C283.745 88.0226 283.279 87.7419 282.885 87.3357C282.503 86.9177 282.311 86.3383 282.311 85.5977C282.311 84.9049 282.521 84.3315 282.939 83.8776C283.369 83.4117 283.906 83.0713 284.551 82.8563C285.196 82.6293 285.853 82.5158 286.522 82.5158H287.078Z" fill="#71719E"/>
</svg>
